<svg width="40.000000" height="40.000000" viewBox="0 0 40 40" fill="none" xmlns="http://www.w3.org/2000/svg" xmlns:xlink="http://www.w3.org/1999/xlink">
	<desc>
			Created with Pixso.
	</desc>
	<defs>
		<filter id="filter_184_904_dd" x="2.194702" y="6.399048" width="36.000122" height="26.390320" filterUnits="userSpaceOnUse" color-interpolation-filters="sRGB">
			<feFlood flood-opacity="0" result="BackgroundImageFix"/>
			<feGaussianBlur in="BackgroundImage" stdDeviation="4"/>
			<feComposite in2="SourceAlpha" operator="in" result="effect_backgroundBlur_1"/>
			<feBlend mode="normal" in="SourceGraphic" in2="effect_backgroundBlur_1" result="shape"/>
		</filter>
		<clipPath id="clip184_903">
			<rect id="Frame" rx="0.000000" width="35.000000" height="25.400000" transform="translate(2.700073 6.900024)" fill="white" fill-opacity="0"/>
		</clipPath>
		<clipPath id="clip184_902">
			<rect id="Icon" rx="0.000000" width="39.000000" height="39.000000" transform="translate(0.500000 0.500000)" fill="white" fill-opacity="0"/>
		</clipPath>
	</defs>
	<g clip-path="url(#clip184_902)">
		<rect id="Frame" rx="0.000000" width="35.000000" height="25.400000" transform="translate(2.700073 6.900024)" fill="#FFFFFF" fill-opacity="0"/>
		<g clip-path="url(#clip184_903)">
			<g filter="url(#filter_184_904_dd)">
				<mask id="mask_184_904" fill="white">
					<path id="Union" d="M19.0135 10.6882L21.3865 10.6882C21.3865 10.3159 21.3892 9.95175 21.3918 9.59256C21.3972 8.88873 21.4023 8.20398 21.3865 7.51401C21.3624 6.89114 20.8591 6.43597 20.2599 6.40002C19.6608 6.37607 19.0615 6.79532 19.0256 7.39423C18.9921 8.15573 18.9995 8.91727 19.0071 9.68695C19.0104 10.019 19.0135 10.3525 19.0135 10.6882ZM2.20007 26.188C2.15125 24.8627 2.52295 23.6245 2.89551 22.3833C2.98096 22.0989 3.06628 21.8143 3.14673 21.5285C3.63806 19.7677 4.16541 18.0069 4.68066 16.2461C6.04688 11.4908 12.0629 9.53833 15.7419 12.8683C15.8977 13.012 16.1614 13.0959 16.3771 13.0959Q18.3278 13.1051 20.2784 13.1048L20.3324 13.1048Q22.1298 13.1044 23.927 13.0959C24.1188 13.0959 24.3705 13.012 24.5143 12.8802C28.0975 9.59821 33.9817 11.4309 35.4437 16.0066C36.3784 18.9293 37.2173 21.8759 37.9963 24.8465C38.8951 28.2363 36.6421 31.8178 33.2267 32.6084C30.3865 33.2672 27.2946 31.6741 26.0602 28.8831C25.3173 27.2182 24.1667 26.0084 22.3811 25.5652C20.7513 25.1699 19.0856 25.1579 17.4796 25.7329C15.8977 26.2959 14.8192 27.4338 14.1481 28.979C13.4171 30.6799 12.1587 31.8657 10.3971 32.4527C6.43042 33.7703 2.46362 31.0752 2.20007 26.9067C2.19202 26.747 2.1947 26.5873 2.19739 26.4276C2.19873 26.3477 2.20007 26.2679 2.20007 26.188ZM10.6008 18.6537C10.4478 18.6537 10.3033 18.6523 10.1639 18.6509C9.89954 18.6483 9.65356 18.6459 9.40247 18.6537C8.68335 18.6897 8.18005 19.2167 8.20398 19.8755C8.21606 20.5104 8.71936 21.0015 9.41443 21.0374C9.65723 21.0453 9.90015 21.0428 10.1631 21.0402C10.3024 21.0388 10.4473 21.0374 10.6008 21.0374L10.6008 22.1035C10.6128 22.918 11.1041 23.445 11.8112 23.433C12.5062 23.4211 12.9736 22.906 12.9856 22.1274C12.9935 21.8992 12.9911 21.6709 12.9884 21.429L12.9884 21.429C12.9871 21.3028 12.9856 21.1729 12.9856 21.0374C13.1459 21.0374 13.2927 21.0389 13.4314 21.0403L13.4315 21.0403C13.6871 21.0429 13.915 21.0452 14.1481 21.0374C14.8672 21.0135 15.3824 20.5104 15.3824 19.8396C15.3824 19.1808 14.8672 18.6777 14.1481 18.6537C13.903 18.6458 13.6578 18.6484 13.4023 18.651C13.2706 18.6524 13.1362 18.6537 12.9977 18.6537C12.9977 18.5042 12.999 18.3634 13.0005 18.2282C13.0031 17.9734 13.0055 17.7386 12.9977 17.5038C12.9736 16.7732 12.4703 16.2581 11.8112 16.2581C11.1401 16.2461 10.6367 16.7612 10.6128 17.4799C10.5951 17.7448 10.597 18.0031 10.5992 18.3078L10.5992 18.3078C10.6 18.4164 10.6008 18.531 10.6008 18.6537ZM27.5463 19.7797C27.1627 20.163 26.8871 20.4146 26.6234 20.6901C26.0602 21.277 26.0363 21.9957 26.5515 22.4987C27.0549 22.9899 27.738 22.9539 28.3132 22.4029C28.6008 22.1274 28.8525 21.828 29.236 21.4207C29.5596 21.804 29.7992 22.1274 30.0748 22.4149C30.6261 22.9659 31.3212 22.9899 31.8246 22.4987C32.3159 22.0196 32.3159 21.3009 31.7766 20.738C31.489 20.4385 31.1654 20.187 30.7939 19.8396C31.2014 19.4803 31.5129 19.2287 31.7886 18.9412C32.3159 18.3902 32.3279 17.6715 31.8246 17.1804C31.3452 16.7133 30.6501 16.7253 30.1108 17.2403C29.8112 17.5278 29.5476 17.8512 29.224 18.2106C28.9004 17.8632 28.6608 17.5997 28.4091 17.3481C27.7979 16.7372 27.0789 16.6773 26.5636 17.1924C26.0482 17.7075 26.0842 18.4262 26.6953 19.037C26.9351 19.2766 27.2227 19.4922 27.5463 19.7797Z" clip-rule="evenodd" fill="" fill-opacity="1.000000" fill-rule="evenodd"/>
				</mask>
				<path id="Union" d="M19.0135 10.6882L21.3865 10.6882C21.3865 10.3159 21.3892 9.95175 21.3918 9.59256C21.3972 8.88873 21.4023 8.20398 21.3865 7.51401C21.3624 6.89114 20.8591 6.43597 20.2599 6.40002C19.6608 6.37607 19.0615 6.79532 19.0256 7.39423C18.9921 8.15573 18.9995 8.91727 19.0071 9.68695C19.0104 10.019 19.0135 10.3525 19.0135 10.6882ZM2.20007 26.188C2.15125 24.8627 2.52295 23.6245 2.89551 22.3833C2.98096 22.0989 3.06628 21.8143 3.14673 21.5285C3.63806 19.7677 4.16541 18.0069 4.68066 16.2461C6.04688 11.4908 12.0629 9.53833 15.7419 12.8683C15.8977 13.012 16.1614 13.0959 16.3771 13.0959Q18.3278 13.1051 20.2784 13.1048L20.3324 13.1048Q22.1298 13.1044 23.927 13.0959C24.1188 13.0959 24.3705 13.012 24.5143 12.8802C28.0975 9.59821 33.9817 11.4309 35.4437 16.0066C36.3784 18.9293 37.2173 21.8759 37.9963 24.8465C38.8951 28.2363 36.6421 31.8178 33.2267 32.6084C30.3865 33.2672 27.2946 31.6741 26.0602 28.8831C25.3173 27.2182 24.1667 26.0084 22.3811 25.5652C20.7513 25.1699 19.0856 25.1579 17.4796 25.7329C15.8977 26.2959 14.8192 27.4338 14.1481 28.979C13.4171 30.6799 12.1587 31.8657 10.3971 32.4527C6.43042 33.7703 2.46362 31.0752 2.20007 26.9067C2.19202 26.747 2.1947 26.5873 2.19739 26.4276C2.19873 26.3477 2.20007 26.2679 2.20007 26.188ZM10.6008 18.6537C10.4478 18.6537 10.3033 18.6523 10.1639 18.6509C9.89954 18.6483 9.65356 18.6459 9.40247 18.6537C8.68335 18.6897 8.18005 19.2167 8.20398 19.8755C8.21606 20.5104 8.71936 21.0015 9.41443 21.0374C9.65723 21.0453 9.90015 21.0428 10.1631 21.0402C10.3024 21.0388 10.4473 21.0374 10.6008 21.0374L10.6008 22.1035C10.6128 22.918 11.1041 23.445 11.8112 23.433C12.5062 23.4211 12.9736 22.906 12.9856 22.1274C12.9935 21.8992 12.9911 21.6709 12.9884 21.429L12.9884 21.429C12.9871 21.3028 12.9856 21.1729 12.9856 21.0374C13.1459 21.0374 13.2927 21.0389 13.4314 21.0403L13.4315 21.0403C13.6871 21.0429 13.915 21.0452 14.1481 21.0374C14.8672 21.0135 15.3824 20.5104 15.3824 19.8396C15.3824 19.1808 14.8672 18.6777 14.1481 18.6537C13.903 18.6458 13.6578 18.6484 13.4023 18.651C13.2706 18.6524 13.1362 18.6537 12.9977 18.6537C12.9977 18.5042 12.999 18.3634 13.0005 18.2282C13.0031 17.9734 13.0055 17.7386 12.9977 17.5038C12.9736 16.7732 12.4703 16.2581 11.8112 16.2581C11.1401 16.2461 10.6367 16.7612 10.6128 17.4799C10.5951 17.7448 10.597 18.0031 10.5992 18.3078L10.5992 18.3078C10.6 18.4164 10.6008 18.531 10.6008 18.6537ZM27.5463 19.7797C27.1627 20.163 26.8871 20.4146 26.6234 20.6901C26.0602 21.277 26.0363 21.9957 26.5515 22.4987C27.0549 22.9899 27.738 22.9539 28.3132 22.4029C28.6008 22.1274 28.8525 21.828 29.236 21.4207C29.5596 21.804 29.7992 22.1274 30.0748 22.4149C30.6261 22.9659 31.3212 22.9899 31.8246 22.4987C32.3159 22.0196 32.3159 21.3009 31.7766 20.738C31.489 20.4385 31.1654 20.187 30.7939 19.8396C31.2014 19.4803 31.5129 19.2287 31.7886 18.9412C32.3159 18.3902 32.3279 17.6715 31.8246 17.1804C31.3452 16.7133 30.6501 16.7253 30.1108 17.2403C29.8112 17.5278 29.5476 17.8512 29.224 18.2106C28.9004 17.8632 28.6608 17.5997 28.4091 17.3481C27.7979 16.7372 27.0789 16.6773 26.5636 17.1924C26.0482 17.7075 26.0842 18.4262 26.6953 19.037C26.9351 19.2766 27.2227 19.4922 27.5463 19.7797Z" clip-rule="evenodd" fill="#E60000" fill-opacity="1.000000" fill-rule="evenodd" mask="url(#mask_184_904)"/>
				<path id="Union" d="M21.3865 10.6882L19.0135 10.6882C19.0135 10.3525 19.0104 10.019 19.0071 9.68695C18.9995 8.91727 18.9921 8.15573 19.0256 7.39423C19.0615 6.79532 19.6608 6.37607 20.2599 6.40002C20.8591 6.43597 21.3624 6.89114 21.3865 7.51401C21.4023 8.20398 21.3972 8.88873 21.3918 9.59256C21.3892 9.95175 21.3865 10.3159 21.3865 10.6882ZM20.3914 9.68823L20.0072 9.68823L20.0071 9.67715Q19.9925 8.19172 20.023 7.47231Q20.0298 7.46507 20.0421 7.45554Q20.1139 7.40013 20.1871 7.39816Q20.1936 7.39798 20.2001 7.39822Q20.2711 7.40249 20.3209 7.43719Q20.3338 7.44622 20.3453 7.45731Q20.383 7.49356 20.3864 7.53281L20.3867 7.53699Q20.4022 8.21161 20.3918 9.58484L20.3918 9.58762L20.3914 9.68823ZM2.20007 26.188C2.20007 26.2679 2.19873 26.3477 2.19739 26.4276C2.1947 26.5874 2.19202 26.747 2.20007 26.9067C2.46362 31.0752 6.43042 33.7703 10.3971 32.4527C12.1587 31.8657 13.4171 30.6799 14.1481 28.979C14.8192 27.4338 15.8977 26.2959 17.4796 25.7329C19.0856 25.1579 20.7513 25.1699 22.3811 25.5652C24.1667 26.0084 25.3173 27.2182 26.0602 28.8831C27.2946 31.6741 30.3865 33.2672 33.2267 32.6084C36.6421 31.8178 38.8951 28.2363 37.9963 24.8465C37.2173 21.8759 36.3784 18.9293 35.4437 16.0066C33.9817 11.4309 28.0975 9.59821 24.5143 12.8802C24.3705 13.012 24.1188 13.0959 23.927 13.0959Q22.1298 13.1044 20.3324 13.1048L20.2784 13.1048L20.1542 13.1048Q18.2656 13.1048 16.3771 13.0959C16.1614 13.0959 15.8977 13.012 15.7419 12.8683C12.0629 9.53833 6.04688 11.4908 4.68066 16.2461C4.16541 18.0069 3.63806 19.7677 3.14673 21.5285C3.06628 21.8143 2.98096 22.0989 2.89551 22.3833L2.89533 22.3839C2.52283 23.6249 2.15125 24.8629 2.20007 26.188ZM3.20007 26.1697L3.19934 26.1513Q3.17139 25.3908 3.36816 24.4612Q3.45056 24.0714 3.5863 23.5827Q3.67004 23.2813 3.85327 22.6708L3.85327 22.6708Q4.02661 22.0936 4.10938 21.7994Q4.47656 20.4835 5.25208 17.8491Q5.51135 16.968 5.6405 16.527Q5.85801 15.7699 6.25007 15.1178Q6.62833 14.4886 7.16907 13.9571Q7.33191 13.797 7.50587 13.6501Q7.88741 13.3278 8.32239 13.0688Q8.65623 12.8701 9.00945 12.7158Q9.3183 12.5808 9.64197 12.4798Q10.1939 12.3075 10.7581 12.2435Q10.9032 12.2271 11.0491 12.2178Q11.6698 12.1783 12.2701 12.2709Q12.3682 12.286 12.4658 12.3047Q13.1287 12.4315 13.7219 12.7079Q14.4487 13.0465 15.0709 13.6097Q15.3309 13.8496 15.7097 13.9808Q16.0119 14.0855 16.3169 14.0949Q16.347 14.0959 16.3771 14.0959L20.2761 14.1048L20.3383 14.1048L23.9296 14.0959Q24.2482 14.0959 24.5748 13.9792Q24.9357 13.8505 25.1898 13.6176Q25.7931 13.065 26.4992 12.7282Q27.0782 12.452 27.7264 12.3208Q27.8132 12.3032 27.9005 12.2885Q28.4947 12.1882 29.1111 12.2194Q29.2402 12.2259 29.3687 12.2381Q29.9354 12.2919 30.4916 12.4559Q30.8013 12.5472 31.098 12.6699Q31.4546 12.8173 31.7926 13.01Q32.2264 13.2572 32.6091 13.5675Q32.7787 13.7051 32.9384 13.855Q33.5161 14.3977 33.9158 15.0495Q34.2755 15.636 34.4911 16.3109Q35.7855 20.358 37.0291 25.1001Q37.1448 25.5367 37.18 25.9797Q37.2286 26.5902 37.1243 27.213Q37.0687 27.5445 36.9729 27.864Q36.768 28.5475 36.379 29.1758Q36.0534 29.7018 35.6323 30.1351Q35.3158 30.4608 34.9454 30.7341Q34.3997 31.1368 33.7908 31.3844Q33.4084 31.5399 33.0011 31.6341Q32.7699 31.6878 32.5358 31.718Q31.8905 31.8012 31.2224 31.7066Q31.0035 31.6756 30.7887 31.6266Q30.1254 31.4751 29.5015 31.1516Q29.0809 30.9336 28.7077 30.6526Q28.3435 30.3785 28.0244 30.0445Q27.6261 29.6276 27.3283 29.1483Q27.129 28.8275 26.9747 28.4787Q26.0398 26.3835 24.4253 25.3578Q23.6103 24.8399 22.6221 24.5946Q20.1704 24 17.9961 24.5343Q17.5639 24.6406 17.1426 24.7914Q16.2775 25.0993 15.5577 25.6114Q15.1378 25.9101 14.7673 26.2784Q13.8231 27.217 13.2308 28.5806Q12.7304 29.7451 11.8699 30.4983Q11.1143 31.1597 10.0811 31.5039Q9.21776 31.7907 8.35459 31.7903Q7.98747 31.7902 7.62036 31.7381Q7.02815 31.654 6.48527 31.4431Q5.95446 31.2368 5.47083 30.9091Q4.99991 30.59 4.61858 30.1864Q4.20774 29.7515 3.90088 29.2183Q3.71583 28.8967 3.57864 28.5559Q3.25558 27.7532 3.198 26.8436Q3.1925 26.7304 3.19727 26.4443L3.19727 26.4443Q3.20007 26.2762 3.20007 26.188L3.20007 26.1697ZM10.6038 17.6538C10.596 17.8591 10.5975 18.0675 10.5992 18.3037L10.5992 18.3078L10.5992 18.3078C10.6 18.4164 10.6008 18.531 10.6008 18.6537C10.4478 18.6537 10.3033 18.6523 10.1639 18.6509L10.1618 18.6509C9.968 18.649 9.7841 18.6472 9.60079 18.6495C9.53475 18.6503 9.46879 18.6517 9.40247 18.6537C8.68335 18.6897 8.18005 19.2167 8.20398 19.8755C8.21606 20.5104 8.71936 21.0015 9.41443 21.0374C9.47644 21.0394 9.53847 21.0408 9.60083 21.0416C9.78263 21.044 9.96731 21.0422 10.1631 21.0402C10.3024 21.0388 10.4473 21.0374 10.6008 21.0374L10.6008 22.1035C10.6128 22.918 11.1041 23.445 11.8112 23.433C12.5062 23.4211 12.9736 22.906 12.9856 22.1274C12.9866 22.0975 12.9875 22.0675 12.9882 22.0374C12.9929 21.839 12.9907 21.6391 12.9884 21.429L12.9884 21.429C12.9871 21.3028 12.9856 21.1729 12.9856 21.0374C13.1459 21.0374 13.2927 21.0389 13.4314 21.0403L13.4315 21.0403L13.4318 21.0403C13.6278 21.0423 13.8075 21.0441 13.9857 21.0413C14.0398 21.0405 14.0938 21.0392 14.1481 21.0374C14.8672 21.0135 15.3824 20.5104 15.3824 19.8396C15.3824 19.1808 14.8672 18.6777 14.1481 18.6537C14.098 18.6521 14.0478 18.651 13.9976 18.6501C13.8026 18.6469 13.6063 18.6489 13.4034 18.651L13.4023 18.651C13.2706 18.6524 13.1362 18.6537 12.9977 18.6537C12.9977 18.5042 12.999 18.3634 13.0005 18.2282L13.0005 18.2223C13.0025 18.0238 13.0044 17.8375 13.0014 17.6537C13.0005 17.6036 12.9993 17.5537 12.9977 17.5038C12.9736 16.7732 12.4703 16.2581 11.8112 16.2581C11.1401 16.2461 10.6367 16.7612 10.6128 17.4799C10.6089 17.538 10.606 17.5957 10.6038 17.6538ZM9.60422 17.6499Q9.47063 17.6511 9.37122 17.6542Q8.90417 17.6774 8.50745 17.8511Q8.25294 17.9625 8.03946 18.1271Q7.9169 18.2216 7.80786 18.3337Q7.64663 18.4994 7.52692 18.691Q7.42069 18.8611 7.34717 19.0516Q7.28598 19.2101 7.25079 19.3742Q7.19466 19.6359 7.20471 19.9119Q7.20727 20.0508 7.22804 20.1868Q7.26977 20.4602 7.38501 20.7223Q7.4608 20.8947 7.56386 21.0489Q7.69067 21.2387 7.85876 21.4008Q7.96146 21.4998 8.07505 21.5842Q8.29092 21.7445 8.54614 21.8518Q8.63222 21.888 8.7206 21.9172Q9.02779 22.0187 9.36279 22.0361Q9.46571 22.0395 9.60083 22.0409L9.60083 22.1035Q9.60779 22.5862 9.75439 22.9944Q9.87862 23.3405 10.0927 23.617Q10.1475 23.6877 10.2081 23.7539Q10.3691 23.9294 10.5602 24.0612Q10.7381 24.1838 10.9423 24.2686Q11.0369 24.3078 11.1345 24.3378Q11.4648 24.4391 11.8281 24.4329Q12.1985 24.4265 12.5309 24.3109Q12.6104 24.2833 12.6877 24.2494Q12.8925 24.1596 13.0697 24.0318Q13.2472 23.9037 13.3972 23.7374Q13.4609 23.6668 13.5178 23.5912Q13.719 23.3242 13.8367 22.9943Q13.9785 22.5967 13.9855 22.1428Q13.9871 22.097 13.9882 22.041Q14.0982 22.0396 14.1814 22.0369Q14.5412 22.0249 14.8693 21.9167Q14.9467 21.8911 15.0223 21.8603Q15.2863 21.7525 15.5084 21.5881Q15.626 21.5011 15.7319 21.3981Q15.8939 21.2407 16.0171 21.0573Q16.1317 20.8866 16.2128 20.6934Q16.2705 20.5558 16.3086 20.413Q16.3824 20.1362 16.3824 19.8396Q16.3824 19.5579 16.3145 19.2936Q16.2745 19.1382 16.2111 18.9888Q16.1326 18.8041 16.0232 18.6401Q15.8969 18.4508 15.7294 18.2891Q15.6252 18.1885 15.5097 18.1032Q15.2866 17.9383 15.0214 17.8303Q14.9446 17.799 14.866 17.7733Q14.5393 17.6662 14.1814 17.6543Q14.1023 17.6518 14.001 17.6504Q13.9997 17.5488 13.9971 17.4705Q13.9849 17.0986 13.8715 16.7605Q13.849 16.6932 13.8224 16.6272Q13.7119 16.353 13.5411 16.1236Q13.4595 16.014 13.3641 15.9146Q13.2017 15.7453 13.0111 15.6179Q12.8474 15.5084 12.663 15.4299Q12.5159 15.3673 12.363 15.3275Q12.0961 15.2581 11.8112 15.2581Q11.6315 15.2548 11.4563 15.2813Q11.2071 15.319 10.9669 15.4168Q10.7742 15.4953 10.6036 15.6075Q10.4159 15.7309 10.255 15.8951Q10.1544 15.9978 10.0689 16.1118Q9.90029 16.3366 9.79028 16.6053Q9.7603 16.6786 9.73536 16.7535Q9.62857 17.0744 9.61417 17.4259Q9.60797 17.5231 9.60422 17.6499ZM26.7865 19.1251C27.0068 19.3311 27.2627 19.5278 27.5463 19.7797C27.2607 20.0651 27.035 20.2774 26.8294 20.481C26.7589 20.5509 26.6908 20.6197 26.6234 20.6901C26.0602 21.277 26.0363 21.9957 26.5515 22.4987C27.0549 22.9899 27.738 22.9539 28.3132 22.4029C28.3945 22.3251 28.4728 22.2454 28.5521 22.1619C28.7535 21.9497 28.9608 21.7129 29.236 21.4207C29.4808 21.7107 29.6775 21.9664 29.8781 22.1981C29.9427 22.2728 30.0077 22.3449 30.0748 22.4149C30.6261 22.9659 31.3212 22.9899 31.8246 22.4987C32.3159 22.0196 32.3159 21.3009 31.7766 20.738C31.7018 20.66 31.6245 20.5853 31.5445 20.5113C31.3173 20.3011 31.0687 20.0965 30.7939 19.8396C31.0881 19.5802 31.3323 19.3769 31.5491 19.1757C31.6325 19.0983 31.7119 19.0211 31.7886 18.9412C32.3159 18.3902 32.3279 17.6715 31.8246 17.1804C31.3452 16.7133 30.6501 16.7253 30.1108 17.2403C30.0364 17.3118 29.9642 17.3854 29.8927 17.4613C29.6765 17.6907 29.4672 17.9405 29.224 18.2106C28.9556 17.9225 28.745 17.692 28.5373 17.4783C28.4946 17.4343 28.452 17.391 28.4091 17.3481C27.7979 16.7372 27.0789 16.6773 26.5636 17.1924C26.0482 17.7075 26.0842 18.4262 26.6953 19.037C26.725 19.0667 26.7554 19.096 26.7865 19.1251ZM29.2069 16.733Q29.1573 16.6821 29.116 16.6408Q28.7793 16.3043 28.3947 16.1054Q28.0164 15.9098 27.62 15.8605Q27.5772 15.8552 27.5342 15.8516Q27.2809 15.8302 27.0371 15.869Q26.8278 15.9022 26.6255 15.9798Q26.5466 16.01 26.4707 16.0463Q26.1353 16.2065 25.8566 16.4851Q25.5734 16.7683 25.4101 17.1089Q25.3788 17.1742 25.3519 17.2417Q25.2663 17.4566 25.2304 17.6795Q25.1937 17.9076 25.2091 18.1441Q25.2135 18.2113 25.2221 18.278Q25.2705 18.6542 25.4514 19.0134Q25.6483 19.4044 25.9884 19.7443Q26.0257 19.7816 26.0718 19.8249Q25.9702 19.9264 25.901 19.9987Q25.5781 20.3351 25.3955 20.7277Q25.2416 21.0586 25.1987 21.4033Q25.1873 21.4952 25.1837 21.588Q25.1751 21.8173 25.2149 22.038Q25.2547 22.259 25.3433 22.4713Q25.3761 22.55 25.4149 22.6257Q25.5799 22.9477 25.853 23.2143Q26.1367 23.4911 26.4757 23.6489Q26.5318 23.675 26.5894 23.6979Q26.8013 23.782 27.0211 23.8175Q27.2364 23.8522 27.4592 23.8402Q27.5346 23.8361 27.6093 23.8268Q27.961 23.7827 28.298 23.6213Q28.6758 23.4404 29.005 23.1251Q29.0862 23.0473 29.1952 22.9345Q29.2833 23.0343 29.353 23.107Q29.693 23.4471 30.0784 23.6315Q30.381 23.7764 30.6984 23.8247Q30.8101 23.8416 30.9236 23.8466Q31.1328 23.8559 31.3355 23.824Q31.5669 23.7877 31.7898 23.698Q31.8562 23.6712 31.9205 23.6403Q32.2483 23.4825 32.5229 23.2145Q32.7601 22.9832 32.9155 22.7059Q32.9742 22.6012 33.0212 22.49Q33.109 22.2823 33.1504 22.0658Q33.1912 21.8525 33.1869 21.6305Q33.1844 21.5052 33.1677 21.382Q33.1259 21.0742 32.9951 20.7786Q32.8191 20.3806 32.4988 20.0462Q32.415 19.959 32.2946 19.8454Q32.4226 19.7248 32.5104 19.6333Q32.8245 19.3051 32.9987 18.9144Q33.0004 18.9107 33.0021 18.9069Q33.1308 18.6158 33.1729 18.3126Q33.1904 18.1862 33.1929 18.0577Q33.1971 17.839 33.1576 17.6285Q33.116 17.4074 33.0262 17.1953Q32.9848 17.0975 32.9343 17.0046Q32.7742 16.7099 32.5229 16.4647Q32.284 16.2319 32.0009 16.0835Q31.9043 16.0329 31.8025 15.9921Q31.598 15.9101 31.3857 15.8728Q31.1768 15.836 30.9603 15.8425Q30.8358 15.8462 30.7133 15.8641Q30.4161 15.9076 30.1312 16.0348Q30.1258 16.0372 30.1204 16.0396Q29.7401 16.2116 29.4202 16.5172Q29.3272 16.6064 29.2069 16.733Z" clip-rule="evenodd" fill="#E60000" fill-opacity="1.000000" fill-rule="evenodd"/>
			</g>
		</g>
	</g>
</svg>
