<svg width="40.000000" height="40.000000" viewBox="0 0 40 40" fill="none" xmlns="http://www.w3.org/2000/svg" xmlns:xlink="http://www.w3.org/1999/xlink">
	<desc>
			Created with Pixso.
	</desc>
	<defs>
		<filter id="filter_184_899_dd" x="1.804077" y="6.200012" width="36.607056" height="26.799988" filterUnits="userSpaceOnUse" color-interpolation-filters="sRGB">
			<feFlood flood-opacity="0" result="BackgroundImageFix"/>
			<feGaussianBlur in="BackgroundImage" stdDeviation="4"/>
			<feComposite in2="SourceAlpha" operator="in" result="effect_backgroundBlur_1"/>
			<feBlend mode="normal" in="SourceGraphic" in2="effect_backgroundBlur_1" result="shape"/>
		</filter>
		<clipPath id="clip184_898">
			<rect id="Frame" rx="0.000000" width="35.599998" height="25.799999" transform="translate(2.300049 6.700012)" fill="white" fill-opacity="0"/>
		</clipPath>
		<clipPath id="clip184_897">
			<rect id="Icon" rx="0.000000" width="39.000000" height="39.000000" transform="translate(0.500000 0.500000)" fill="white" fill-opacity="0"/>
		</clipPath>
	</defs>
	<g clip-path="url(#clip184_897)">
		<rect id="Frame" rx="0.000000" width="35.599998" height="25.799999" transform="translate(2.300049 6.700012)" fill="#FFFFFF" fill-opacity="0"/>
		<g clip-path="url(#clip184_898)">
			<g filter="url(#filter_184_899_dd)">
				<mask id="mask_184_899" fill="white">
					<path id="Union" d="M33.1366 6.20001L7.13678 6.20001C5.81781 6.20001 5.45148 6.56546 5.45148 7.84454L5.45148 21.61C5.45148 22.8769 5.83002 23.2545 7.07568 23.2545L33.1366 23.2545C34.3822 23.2545 34.7607 22.8769 34.7607 21.61L34.7607 7.84454C34.7607 6.57764 34.3822 6.20001 33.1366 6.20001ZM3.37537 33L36.8491 33C37.1422 33 37.4597 32.9878 37.7406 32.8904C38.3878 32.6711 38.5833 32.1351 38.2534 31.5382C37.0933 29.4185 35.9209 27.3111 34.7485 25.2036C34.4677 24.7164 34.0647 24.4727 33.5029 24.4727L6.69708 24.4727C6.13538 24.4727 5.73236 24.7164 5.46368 25.2036C4.29132 27.3111 3.11896 29.4185 1.9588 31.5382C1.62903 32.1351 1.83667 32.6711 2.48389 32.8904C2.75256 32.9878 3.07007 33 3.37537 33ZM20.8633 30.5663C20.6068 30.565 20.3503 30.5637 20.0939 30.5637C19.8379 30.5637 19.5819 30.565 19.3254 30.5663C18.8112 30.5691 18.295 30.5718 17.7736 30.5637C16.992 30.5515 16.4547 30.0642 16.4424 29.3698C16.4302 28.6511 16.9798 28.1395 17.798 28.1395C19.3368 28.1273 20.8877 28.1273 22.4264 28.1395C23.208 28.1516 23.7454 28.6389 23.7576 29.3333C23.7698 30.0398 23.2202 30.5515 22.402 30.5637C21.8892 30.5718 21.3762 30.5691 20.8633 30.5663Z" clip-rule="evenodd" fill="" fill-opacity="1.000000" fill-rule="evenodd"/>
				</mask>
				<path id="Union" d="M33.1366 6.20001L7.13678 6.20001C5.81781 6.20001 5.45148 6.56546 5.45148 7.84454L5.45148 21.61C5.45148 22.8769 5.83002 23.2545 7.07568 23.2545L33.1366 23.2545C34.3822 23.2545 34.7607 22.8769 34.7607 21.61L34.7607 7.84454C34.7607 6.57764 34.3822 6.20001 33.1366 6.20001ZM3.37537 33L36.8491 33C37.1422 33 37.4597 32.9878 37.7406 32.8904C38.3878 32.6711 38.5833 32.1351 38.2534 31.5382C37.0933 29.4185 35.9209 27.3111 34.7485 25.2036C34.4677 24.7164 34.0647 24.4727 33.5029 24.4727L6.69708 24.4727C6.13538 24.4727 5.73236 24.7164 5.46368 25.2036C4.29132 27.3111 3.11896 29.4185 1.9588 31.5382C1.62903 32.1351 1.83667 32.6711 2.48389 32.8904C2.75256 32.9878 3.07007 33 3.37537 33ZM20.8633 30.5663C20.6068 30.565 20.3503 30.5637 20.0939 30.5637C19.8379 30.5637 19.5819 30.565 19.3254 30.5663C18.8112 30.5691 18.295 30.5718 17.7736 30.5637C16.992 30.5515 16.4547 30.0642 16.4424 29.3698C16.4302 28.6511 16.9798 28.1395 17.798 28.1395C19.3368 28.1273 20.8877 28.1273 22.4264 28.1395C23.208 28.1516 23.7454 28.6389 23.7576 29.3333C23.7698 30.0398 23.2202 30.5515 22.402 30.5637C21.8892 30.5718 21.3762 30.5691 20.8633 30.5663Z" clip-rule="evenodd" fill="#E60000" fill-opacity="1.000000" fill-rule="evenodd" mask="url(#mask_184_899)"/>
				<path id="Union" d="M7.13678 6.20001L33.1366 6.20001C34.3822 6.20001 34.7607 6.57764 34.7607 7.84454L34.7607 21.61C34.7607 22.8769 34.3822 23.2545 33.1366 23.2545L7.07568 23.2545C5.83002 23.2545 5.45148 22.8769 5.45148 21.61L5.45148 7.84454C5.45148 6.56546 5.81781 6.20001 7.13678 6.20001ZM7.13678 7.20001L33.1366 7.20001Q33.4863 7.20001 33.6624 7.24615Q33.6846 7.25196 33.7004 7.2574Q33.7069 7.2759 33.7137 7.30234Q33.7607 7.48523 33.7607 7.84454L33.7607 21.61Q33.7607 21.9693 33.7137 22.1523Q33.707 22.1787 33.7004 22.1972Q33.6846 22.2026 33.6624 22.2084Q33.4863 22.2545 33.1366 22.2545L7.07568 22.2545Q6.72595 22.2545 6.54987 22.2084Q6.52771 22.2026 6.51183 22.1972Q6.50533 22.1787 6.49854 22.1523Q6.45148 21.9693 6.45148 21.61L6.45148 7.84454Q6.45148 7.4776 6.49792 7.29657Q6.50304 7.27665 6.50782 7.26186Q6.52802 7.25504 6.55658 7.24799Q6.75098 7.20001 7.13678 7.20001ZM36.8491 33L3.37537 33C3.07007 33 2.75256 32.9878 2.48389 32.8904C1.83667 32.6711 1.62903 32.1351 1.9588 31.5382C3.11896 29.4185 4.29132 27.3111 5.46368 25.2036C5.73236 24.7164 6.13538 24.4727 6.69708 24.4727L33.5029 24.4727C34.0647 24.4727 34.4677 24.7164 34.7485 25.2036C35.9209 27.3111 37.0933 29.4185 38.2534 31.5382C38.5833 32.1351 38.3878 32.6711 37.7406 32.8904C37.4597 32.9878 37.1422 33 36.8491 33ZM36.8491 32L3.37537 32Q3.03415 32 2.86748 31.9614L6.33942 25.6865Q6.41064 25.5572 6.48218 25.5146Q6.55255 25.4727 6.69708 25.4727L33.5029 25.4727Q33.6484 25.4727 33.7222 25.5163Q33.8016 25.5633 33.8735 25.6878L37.3462 31.9639Q37.1807 32 36.8491 32ZM20.8569 31.5663L20.858 31.5663Q21.8943 31.5718 22.4169 31.5635Q22.8884 31.5565 23.3036 31.405Q23.6421 31.2815 23.9156 31.0727Q23.9934 31.0132 24.066 30.9468Q24.2531 30.7758 24.3915 30.5717Q24.5056 30.4033 24.5865 30.2125Q24.6401 30.0862 24.6769 29.9553Q24.7632 29.6484 24.7574 29.3157Q24.7516 28.9836 24.6557 28.6799Q24.6182 28.5611 24.5669 28.4466Q24.4813 28.2555 24.3624 28.0879Q24.2273 27.8973 24.0493 27.7372Q23.9722 27.6678 23.8894 27.6063Q23.6258 27.4104 23.3036 27.2935Q22.8992 27.1467 22.4304 27.1395L20.1082 27.1303L17.798 27.1395Q17.323 27.1395 16.9041 27.2885Q16.5718 27.4067 16.3018 27.6083Q16.2147 27.6734 16.134 27.7471Q15.9551 27.9108 15.8207 28.1053Q15.6977 28.2833 15.6121 28.4872Q15.5653 28.5984 15.5315 28.7135Q15.4366 29.0356 15.4426 29.3874Q15.4485 29.7196 15.5444 30.0234Q15.5819 30.1421 15.6331 30.2565Q15.7191 30.4484 15.8385 30.6166Q15.9733 30.8064 16.1506 30.966Q16.2279 31.0355 16.311 31.0972Q16.5745 31.2928 16.8964 31.4096Q17.3008 31.5564 17.7581 31.5635Q18.2902 31.5718 19.329 31.5663L20.0905 31.5637L20.0908 31.5637L20.8569 31.5663ZM20.0939 30.5637C20.3503 30.5637 20.6068 30.565 20.8633 30.5663C21.3762 30.5691 21.8892 30.5718 22.402 30.5637C23.2202 30.5515 23.7698 30.0398 23.7576 29.3333C23.7454 28.6389 23.208 28.1516 22.4264 28.1395C20.8877 28.1273 19.3368 28.1273 17.798 28.1395C16.9798 28.1395 16.4302 28.6511 16.4424 29.3698C16.4547 30.0642 16.992 30.5515 17.7736 30.5637C18.295 30.5718 18.8112 30.5691 19.3254 30.5663C19.5819 30.565 19.8379 30.5637 20.0939 30.5637Z" clip-rule="evenodd" fill="#E60000" fill-opacity="1.000000" fill-rule="evenodd"/>
			</g>
		</g>
	</g>
</svg>
