<svg width="40.000000" height="40.000000" viewBox="0 0 40 40" fill="none" xmlns="http://www.w3.org/2000/svg" xmlns:xlink="http://www.w3.org/1999/xlink">
	<desc>
			Created with Pixso.
	</desc>
	<defs>
		<filter id="filter_184_894_dd" x="2.788818" y="6.799988" width="34.622314" height="25.604050" filterUnits="userSpaceOnUse" color-interpolation-filters="sRGB">
			<feFlood flood-opacity="0" result="BackgroundImageFix"/>
			<feGaussianBlur in="BackgroundImage" stdDeviation="4"/>
			<feComposite in2="SourceAlpha" operator="in" result="effect_backgroundBlur_1"/>
			<feBlend mode="normal" in="SourceGraphic" in2="effect_backgroundBlur_1" result="shape"/>
		</filter>
		<clipPath id="clip184_892">
			<rect id="Frame" rx="0.000000" width="33.599998" height="24.600000" transform="translate(3.300049 7.299988)" fill="white" fill-opacity="0"/>
		</clipPath>
		<clipPath id="clip184_891">
			<rect id="Icon" rx="0.000000" width="39.000000" height="39.000000" transform="translate(0.500000 0.500000)" fill="white" fill-opacity="0"/>
		</clipPath>
	</defs>
	<g clip-path="url(#clip184_891)">
		<rect id="Frame" rx="0.000000" width="33.599998" height="24.600000" transform="translate(3.300049 7.299988)" fill="#FFFFFF" fill-opacity="0"/>
		<g clip-path="url(#clip184_892)">
			<g filter="url(#filter_184_894_dd)">
				<mask id="mask_184_894" fill="white">
					<path id="Union" d="M2.80005 23.8257L2.80005 8.32951C2.80005 7.26889 3.25781 6.79999 4.34033 6.79999L35.8711 6.79999C36.9424 6.79999 37.4111 7.26889 37.4111 8.31835L37.4111 23.8146C25.8704 23.8257 14.3743 23.8257 2.80005 23.8257ZM17.6445 19.1143C19.5754 17.9979 21.406 16.9373 23.3257 15.832C21.3948 14.7156 19.542 13.6549 17.6445 12.5497L17.6445 19.1143ZM32.6899 31.6073C32.4109 30.7477 32.0425 29.9215 31.6743 28.9837L31.675 28.9837C33.1814 28.9837 34.5986 28.9837 35.9937 28.9725C36.7527 28.9613 37.333 28.5371 37.3665 27.8561C37.405 27.2079 37.3958 26.5543 37.3862 25.8954C37.3818 25.6011 37.3777 25.3056 37.3777 25.0091L2.78882 25.0091L2.78882 27.376C2.78882 28.5036 3.25757 28.9725 4.37378 28.9725L8.51465 28.9725C8.16846 29.8433 7.84497 30.6472 7.52124 31.451C7.38721 31.8083 7.33154 32.1655 7.77783 32.333C8.21313 32.5005 8.42529 32.2102 8.57031 31.8529C8.90527 31.0268 9.26245 30.2118 9.56372 29.3744C9.68652 29.0507 9.854 28.9725 10.1775 28.9725Q15.1416 28.9809 20.1055 28.9809Q25.0696 28.9809 30.0334 28.9725C30.3796 28.9725 30.5247 29.0842 30.6362 29.3968C30.9265 30.1671 31.239 30.9151 31.5515 31.6743C31.6072 31.7971 31.6519 31.9088 31.7078 32.0316C31.8528 32.3553 32.1541 32.5116 32.4221 32.3218C32.6006 32.199 32.7568 31.8083 32.6899 31.6073ZM24.3188 27.2085L20.0776 27.2085C19.6094 27.2085 19.1396 27.2073 18.6697 27.2061C17.7285 27.2036 16.7854 27.2011 15.8474 27.2085C15.468 27.2085 15.0996 27.1639 15.0886 26.6838C15.0774 26.1926 15.4458 26.0921 15.8586 26.0921L24.3301 26.0921C24.7319 26.0921 25.1113 26.1814 25.1113 26.6726C25.1113 27.1862 24.7095 27.2085 24.3188 27.2085Z" clip-rule="evenodd" fill="" fill-opacity="1.000000" fill-rule="evenodd"/>
				</mask>
				<path id="Union" d="M2.80005 23.8257L2.80005 8.32951C2.80005 7.26889 3.25781 6.79999 4.34033 6.79999L35.8711 6.79999C36.9424 6.79999 37.4111 7.26889 37.4111 8.31835L37.4111 23.8146C25.8704 23.8257 14.3743 23.8257 2.80005 23.8257ZM17.6445 19.1143C19.5754 17.9979 21.406 16.9373 23.3257 15.832C21.3948 14.7156 19.542 13.6549 17.6445 12.5497L17.6445 19.1143ZM32.6899 31.6073C32.4109 30.7477 32.0425 29.9215 31.6743 28.9837L31.675 28.9837C33.1814 28.9837 34.5986 28.9837 35.9937 28.9725C36.7527 28.9613 37.333 28.5371 37.3665 27.8561C37.405 27.2079 37.3958 26.5543 37.3862 25.8954C37.3818 25.6011 37.3777 25.3056 37.3777 25.0091L2.78882 25.0091L2.78882 27.376C2.78882 28.5036 3.25757 28.9725 4.37378 28.9725L8.51465 28.9725C8.16846 29.8433 7.84497 30.6472 7.52124 31.451C7.38721 31.8083 7.33154 32.1655 7.77783 32.333C8.21313 32.5005 8.42529 32.2102 8.57031 31.8529C8.90527 31.0268 9.26245 30.2118 9.56372 29.3744C9.68652 29.0507 9.854 28.9725 10.1775 28.9725Q15.1416 28.9809 20.1055 28.9809Q25.0696 28.9809 30.0334 28.9725C30.3796 28.9725 30.5247 29.0842 30.6362 29.3968C30.9265 30.1671 31.239 30.9151 31.5515 31.6743C31.6072 31.7971 31.6519 31.9088 31.7078 32.0316C31.8528 32.3553 32.1541 32.5116 32.4221 32.3218C32.6006 32.199 32.7568 31.8083 32.6899 31.6073ZM24.3188 27.2085L20.0776 27.2085C19.6094 27.2085 19.1396 27.2073 18.6697 27.2061C17.7285 27.2036 16.7854 27.2011 15.8474 27.2085C15.468 27.2085 15.0996 27.1639 15.0886 26.6838C15.0774 26.1926 15.4458 26.0921 15.8586 26.0921L24.3301 26.0921C24.7319 26.0921 25.1113 26.1814 25.1113 26.6726C25.1113 27.1862 24.7095 27.2085 24.3188 27.2085Z" clip-rule="evenodd" fill="#E60000" fill-opacity="1.000000" fill-rule="evenodd" mask="url(#mask_184_894)"/>
				<path id="Union" d="M32.0771 29.9826C31.9458 29.66 31.81 29.3294 31.6743 28.9837L31.675 28.9837C32.0385 28.9837 32.3968 28.9837 32.7508 28.9835C33.864 28.983 34.9352 28.981 35.9937 28.9725C36.7527 28.9613 37.333 28.5371 37.3665 27.8561C37.405 27.2079 37.3958 26.5543 37.3862 25.8954C37.3818 25.6011 37.3777 25.3056 37.3777 25.0091L2.78882 25.0091L2.78882 27.376C2.78882 28.5036 3.25757 28.9725 4.37378 28.9725L8.51465 28.9725C8.37856 29.3148 8.24598 29.6468 8.11551 29.9725C7.91409 30.4753 7.71771 30.9632 7.52124 31.451C7.38721 31.8083 7.33154 32.1655 7.77783 32.333C8.21313 32.5005 8.42529 32.2102 8.57031 31.8529C8.90527 31.0268 9.26245 30.2118 9.56372 29.3744C9.68652 29.0507 9.854 28.9725 10.1775 28.9725Q15.1416 28.9809 20.1055 28.9809Q25.0696 28.9809 30.0334 28.9725C30.3796 28.9725 30.5247 29.0842 30.6362 29.3968C30.9265 30.1671 31.239 30.9151 31.5515 31.6743C31.6072 31.7971 31.6519 31.9088 31.7078 32.0316C31.8528 32.3553 32.1541 32.5116 32.4221 32.3218C32.6006 32.199 32.7568 31.8083 32.6899 31.6073C32.5138 31.0646 32.302 30.5352 32.0771 29.9826ZM30.2558 27.9837L31.675 27.9837L35.991 27.9725Q36.2205 27.9691 36.3328 27.8803Q36.3423 27.8728 36.3493 27.8633Q36.366 27.8406 36.3677 27.807Q36.3923 27.3921 36.3943 26.8758Q36.3954 26.5831 36.3876 26.0091L25.9792 26.0091Q26.1113 26.3104 26.1113 26.6726Q26.1113 27.0754 25.9497 27.3968Q25.9283 27.4394 25.9041 27.4806Q25.8098 27.6405 25.682 27.7663Q25.5592 27.8871 25.4053 27.9764L30.0327 27.9725Q30.1479 27.9725 30.2558 27.9837ZM14.8009 27.9764Q14.6384 27.8822 14.5104 27.7536Q14.3872 27.6298 14.2959 27.474Q14.274 27.4367 14.2544 27.3981Q14.0978 27.0901 14.0889 26.707Q14.0801 26.3255 14.2179 26.0091L3.78882 26.0091L3.78882 27.376Q3.78882 27.6537 3.83643 27.8111Q3.8562 27.8764 3.87183 27.892Q3.88623 27.9065 3.94824 27.9255Q4.10156 27.9725 4.37378 27.9725L9.99268 27.9725L9.98968 27.98Q10.081 27.9725 10.1775 27.9725L14.8009 27.9764ZM2.80005 22.8257L2.80005 23.8257L3.80005 23.8257C15.0366 23.8257 26.2028 23.8254 37.4111 23.8146L37.4111 8.31835C37.4111 7.26889 36.9424 6.79999 35.8711 6.79999L4.34033 6.79999C3.25781 6.79999 2.80005 7.26889 2.80005 8.32951L2.80005 22.8257ZM3.80005 22.8256L24.8315 22.8228L36.4111 22.8152L36.4111 8.31835Q36.4111 8.07702 36.3679 7.94041Q36.3513 7.88818 36.3396 7.87657Q36.3259 7.86287 36.2676 7.84478Q36.123 7.79999 35.8711 7.79999L4.34033 7.79999Q4.08398 7.79999 3.93921 7.84493Q3.88306 7.86233 3.87134 7.87402Q3.86035 7.88503 3.84375 7.93896Q3.80005 8.07985 3.80005 8.32951L3.80005 22.8256ZM16.6445 10.8145L16.6445 20.8479L18.1453 19.98L21.1902 18.2189L25.3269 15.8317L20.3486 12.9607L16.6445 10.8145ZM18.6445 18.536C18.3136 18.7274 17.9806 18.92 17.6445 19.1143L17.6445 12.5497C17.979 12.7445 18.3121 12.938 18.6445 13.1306C19.8701 13.8408 21.0858 14.5396 22.3256 15.2546C22.657 15.4457 22.9902 15.638 23.3257 15.832C22.9896 16.0255 22.6562 16.2177 22.3245 16.409C21.0916 17.1202 19.8823 17.82 18.6445 18.536ZM20.0776 27.2085L24.3188 27.2085C24.7095 27.2085 25.1113 27.1862 25.1113 26.6726C25.1113 26.1814 24.7319 26.0921 24.3301 26.0921L15.8586 26.0921C15.4458 26.0921 15.0774 26.1926 15.0886 26.6838C15.0996 27.1639 15.468 27.2085 15.8474 27.2085C16.7854 27.2011 17.7285 27.2036 18.6697 27.2061C19.1396 27.2073 19.6094 27.2085 20.0776 27.2085Z" clip-rule="evenodd" fill="#E60000" fill-opacity="1.000000" fill-rule="evenodd"/>
			</g>
		</g>
	</g>
</svg>
