<svg width="40.000000" height="40.000000" viewBox="0 0 40 40" fill="none" xmlns="http://www.w3.org/2000/svg" xmlns:xlink="http://www.w3.org/1999/xlink">
	<desc>
			Created with Pixso.
	</desc>
	<defs>
		<filter id="filter_184_909_dd" x="3.403564" y="7.000000" width="33.606934" height="25.197388" filterUnits="userSpaceOnUse" color-interpolation-filters="sRGB">
			<feFlood flood-opacity="0" result="BackgroundImageFix"/>
			<feGaussianBlur in="BackgroundImage" stdDeviation="4"/>
			<feComposite in2="SourceAlpha" operator="in" result="effect_backgroundBlur_1"/>
			<feBlend mode="normal" in="SourceGraphic" in2="effect_backgroundBlur_1" result="shape"/>
		</filter>
		<clipPath id="clip184_908">
			<rect id="Frame" rx="0.000000" width="32.599998" height="24.200001" transform="translate(3.900146 7.500000)" fill="white" fill-opacity="0"/>
		</clipPath>
		<clipPath id="clip184_907">
			<rect id="Icon" rx="0.000000" width="39.000000" height="39.000000" transform="translate(0.500000 0.500000)" fill="white" fill-opacity="0"/>
		</clipPath>
	</defs>
	<g clip-path="url(#clip184_907)">
		<rect id="Frame" rx="0.000000" width="32.599998" height="24.200001" transform="translate(3.900146 7.500000)" fill="#FFFFFF" fill-opacity="0"/>
		<g clip-path="url(#clip184_908)">
			<g filter="url(#filter_184_909_dd)">
				<mask id="mask_184_909" fill="white">
					<path id="Union" d="M19.3115 12.5942C19.603 12.593 19.8943 12.5918 20.1841 12.5918C20.4844 12.5918 20.7856 12.593 21.0876 12.5942C21.6941 12.5965 22.3037 12.5988 22.9133 12.5918C23.8582 12.5709 24.3933 12.0358 24.4038 11.0811Q24.4119 10.4509 24.4119 9.82062Q24.4116 9.19193 24.4038 8.5632C24.4038 7.56653 23.8477 7 22.8503 7L17.5496 7C16.5627 7.0105 16.0171 7.56653 16.0066 8.5737L16.0066 11.0391C16.0066 12.0463 16.5417 12.5814 17.5601 12.5918C18.1411 12.5988 18.7271 12.5965 19.3115 12.5942ZM9.33057 15.4035L31.1113 15.4035C33.0427 15.4035 34.1763 16.5261 34.1973 18.446C34.2078 19.4321 34.3757 19.5895 35.3625 19.6C36.4646 19.6 37.0105 20.135 37.0105 21.2261L37.0105 26.3669C37.0105 27.4579 36.4646 27.993 35.3625 27.993C34.3757 27.993 34.2078 28.1609 34.1973 29.147C34.1868 31.067 33.0427 32.2 31.1113 32.1895C29.5369 32.179 27.9624 32.179 26.3982 32.1056C25.4851 32.0636 24.6768 31.6649 23.9526 31.1299C23.2283 30.6053 22.5249 30.0598 21.8113 29.5352C20.709 28.7064 19.7434 28.7064 18.6411 29.5247C17.938 30.0493 17.2451 30.5739 16.5417 31.0984C15.5552 31.8223 14.4426 32.1895 13.2144 32.1895Q12.1909 32.1974 11.1675 32.1974L11.1475 32.1974Q10.134 32.1973 9.12061 32.1895C7.42017 32.179 6.25513 31.025 6.22363 29.3254L6.22363 28.8533C6.19214 28.2448 5.95068 28.014 5.3418 27.993L4.81714 27.993C3.99829 27.951 3.4209 27.4055 3.4209 26.5977C3.3999 24.7302 3.3999 22.8523 3.4104 20.9848C3.4209 20.198 3.98779 19.6525 4.76465 19.6C4.84814 19.593 4.927 19.5953 5.00757 19.5976C5.04834 19.5988 5.0896 19.6 5.13184 19.6C6.00317 19.6 6.20264 19.4007 6.21313 18.5194C6.23413 16.5051 7.33618 15.4035 9.33057 15.4035Z" clip-rule="evenodd" fill="" fill-opacity="1.000000" fill-rule="evenodd"/>
				</mask>
				<path id="Union" d="M19.3115 12.5942C19.603 12.593 19.8943 12.5918 20.1841 12.5918C20.4844 12.5918 20.7856 12.593 21.0876 12.5942C21.6941 12.5965 22.3037 12.5988 22.9133 12.5918C23.8582 12.5709 24.3933 12.0358 24.4038 11.0811Q24.4119 10.4509 24.4119 9.82062Q24.4116 9.19193 24.4038 8.5632C24.4038 7.56653 23.8477 7 22.8503 7L17.5496 7C16.5627 7.0105 16.0171 7.56653 16.0066 8.5737L16.0066 11.0391C16.0066 12.0463 16.5417 12.5814 17.5601 12.5918C18.1411 12.5988 18.7271 12.5965 19.3115 12.5942ZM9.33057 15.4035L31.1113 15.4035C33.0427 15.4035 34.1763 16.5261 34.1973 18.446C34.2078 19.4321 34.3757 19.5895 35.3625 19.6C36.4646 19.6 37.0105 20.135 37.0105 21.2261L37.0105 26.3669C37.0105 27.4579 36.4646 27.993 35.3625 27.993C34.3757 27.993 34.2078 28.1609 34.1973 29.147C34.1868 31.067 33.0427 32.2 31.1113 32.1895C29.5369 32.179 27.9624 32.179 26.3982 32.1056C25.4851 32.0636 24.6768 31.6649 23.9526 31.1299C23.2283 30.6053 22.5249 30.0598 21.8113 29.5352C20.709 28.7064 19.7434 28.7064 18.6411 29.5247C17.938 30.0493 17.2451 30.5739 16.5417 31.0984C15.5552 31.8223 14.4426 32.1895 13.2144 32.1895Q12.1909 32.1974 11.1675 32.1974L11.1475 32.1974Q10.134 32.1973 9.12061 32.1895C7.42017 32.179 6.25513 31.025 6.22363 29.3254L6.22363 28.8533C6.19214 28.2448 5.95068 28.014 5.3418 27.993L4.81714 27.993C3.99829 27.951 3.4209 27.4055 3.4209 26.5977C3.3999 24.7302 3.3999 22.8523 3.4104 20.9848C3.4209 20.198 3.98779 19.6525 4.76465 19.6C4.84814 19.593 4.927 19.5953 5.00757 19.5976C5.04834 19.5988 5.0896 19.6 5.13184 19.6C6.00317 19.6 6.20264 19.4007 6.21313 18.5194C6.23413 16.5051 7.33618 15.4035 9.33057 15.4035Z" clip-rule="evenodd" fill="#E60000" fill-opacity="1.000000" fill-rule="evenodd" mask="url(#mask_184_909)"/>
				<path id="Union" d="M20.1841 12.5918C19.8943 12.5918 19.603 12.593 19.3115 12.5942L19.3069 12.5942C18.724 12.5965 18.1396 12.5988 17.5601 12.5918C16.5417 12.5814 16.0066 12.0463 16.0066 11.0391L16.0066 8.5737C16.0171 7.56653 16.5627 7.0105 17.5496 7L22.8503 7C23.8477 7 24.4038 7.56653 24.4038 8.5632Q24.4116 9.19193 24.4119 9.82062Q24.4119 10.0074 24.4112 10.1941Q24.4095 10.6376 24.4038 11.0811C24.3933 12.0358 23.8582 12.5709 22.9133 12.5918C22.3049 12.5988 21.6965 12.5965 21.0912 12.5942L21.0876 12.5942C20.7856 12.593 20.4844 12.5918 20.1841 12.5918ZM20.1816 11.5919L19.3088 11.5942L19.3074 11.5942Q18.1453 11.5988 17.5703 11.5919Q17.3533 11.5897 17.2168 11.5421Q17.1428 11.5163 17.1084 11.4819Q17.0754 11.4491 17.0515 11.3796Q17.0066 11.2487 17.0066 11.0391L17.0063 8.58411Q17.0085 8.37286 17.0569 8.23557Q17.0852 8.15479 17.126 8.11331Q17.2336 8.00342 17.5496 8L22.8503 8Q23.0491 8 23.1775 8.04587Q23.2517 8.07236 23.2905 8.11163Q23.3306 8.15192 23.3577 8.22922Q23.4038 8.36111 23.4041 8.57571Q23.4116 9.19821 23.4119 9.82065Q23.4119 10.4446 23.4041 11.0701Q23.4019 11.2577 23.3584 11.3786Q23.3337 11.4473 23.2983 11.483Q23.197 11.5853 22.9019 11.5919Q22.2998 11.5988 21.0903 11.5942L20.1816 11.5919ZM6.22363 28.8533L6.22363 29.3254C6.25513 31.025 7.42017 32.179 9.12061 32.1895Q10.134 32.1973 11.1475 32.1974L11.1675 32.1974Q12.1909 32.1974 13.2144 32.1895C14.4426 32.1895 15.5552 31.8223 16.5417 31.0984C17.2451 30.5739 17.938 30.0493 18.6411 29.5247C19.7434 28.7064 20.709 28.7064 21.8113 29.5352C22.5249 30.0598 23.2283 30.6053 23.9526 31.1299C24.6768 31.6649 25.4851 32.0636 26.3982 32.1056C27.9624 32.179 29.5369 32.179 31.1113 32.1895C33.0427 32.2 34.1868 31.067 34.1973 29.147C34.2078 28.1609 34.3757 27.993 35.3625 27.993C36.4646 27.993 37.0105 27.4579 37.0105 26.3669L37.0105 21.2261C37.0105 20.135 36.4646 19.6 35.3625 19.6C34.3757 19.5895 34.2078 19.4321 34.1973 18.446C34.1763 16.5261 33.0427 15.4035 31.1113 15.4035L9.33057 15.4035C7.33618 15.4035 6.23413 16.5051 6.21313 18.5194C6.20264 19.4007 6.00317 19.6 5.13184 19.6C5.0896 19.6 5.04834 19.5988 5.00757 19.5976L5.00709 19.5976C4.92669 19.5953 4.84798 19.593 4.76465 19.6C3.98779 19.6525 3.4209 20.198 3.4104 20.9848C3.3999 22.8523 3.3999 24.7302 3.4209 26.5977C3.4209 27.4055 3.99829 27.951 4.81714 27.993L5.3418 27.993C5.95068 28.014 6.19214 28.2448 6.22363 28.8533ZM4.84679 26.993L5.35913 26.993L5.37622 26.9936Q6.1513 27.0203 6.61659 27.4135Q6.65751 27.4481 6.69604 27.4856Q6.74504 27.5332 6.78951 27.5847Q7.1829 28.0402 7.22217 28.8016L7.22363 28.8274L7.22339 29.3069Q7.23169 29.7523 7.37769 30.1141Q7.48972 30.3917 7.67671 30.603Q7.71179 30.6426 7.74951 30.6799Q7.78812 30.7181 7.82915 30.7535Q8.04159 30.9369 8.31885 31.0451Q8.68164 31.1868 9.12451 31.1895L11.1475 31.1974L11.1636 31.1974L13.2144 31.1895Q13.987 31.1895 14.6818 30.9571Q15.3477 30.7344 15.9421 30.2983L16.9917 29.5114L18.0452 28.7218Q19.1446 27.9055 20.2396 27.9115Q21.3237 27.9174 22.4033 28.7294Q22.7219 28.9635 23.3511 29.437Q24.1409 30.0315 24.5466 30.3256Q25.5483 31.0655 26.4451 31.1067Q27.3423 31.1488 28.4724 31.167Q29.1548 31.1779 30.5271 31.1859Q30.9209 31.1882 31.1167 31.1895Q32.1538 31.1952 32.6741 30.6794Q33.1918 30.1661 33.1975 29.1364Q33.2026 28.647 33.2666 28.3439Q33.3655 27.876 33.6407 27.5634Q33.6739 27.5256 33.7097 27.4901Q33.7467 27.4534 33.7861 27.4195Q34.1009 27.1484 34.5681 27.0543Q34.8728 26.993 35.3625 26.993Q35.6174 26.993 35.7749 26.9416Q35.8604 26.9138 35.8979 26.8767Q35.9336 26.8417 35.96 26.7628Q36.0105 26.6126 36.0105 26.3669L36.0105 21.2261Q36.0105 20.9804 35.96 20.8302Q35.9336 20.7513 35.8979 20.7163Q35.8604 20.6792 35.7749 20.6514Q35.6174 20.6 35.3518 20.5999Q34.864 20.5948 34.5652 20.5336Q34.0897 20.4364 33.7733 20.1582Q33.7422 20.1309 33.7126 20.1017Q33.6732 20.0629 33.6368 20.0214Q33.365 19.7111 33.2668 19.2487Q33.2026 18.9461 33.1975 18.4569Q33.186 17.4277 32.6682 16.9165Q32.1484 16.4035 31.1113 16.4035L9.33057 16.4035Q8.24878 16.4035 7.73877 16.9134Q7.22461 17.4273 7.21289 18.5313Q7.20752 18.9854 7.13525 19.2906Q7.03397 19.7186 6.77924 20.0145Q6.74231 20.0574 6.70215 20.0975Q6.65512 20.1445 6.60434 20.187Q6.31032 20.4334 5.89062 20.5297Q5.58472 20.6 5.13184 20.6Q5.0752 20.6 4.97876 20.5972Q4.87524 20.5942 4.83203 20.5977Q4.59107 20.614 4.4878 20.7416Q4.41246 20.8348 4.4104 20.9872L4.40381 23.7906L4.4209 26.5977Q4.4209 26.7755 4.50982 26.8662Q4.51149 26.8679 4.51318 26.8696Q4.62231 26.9769 4.84679 26.993Z" clip-rule="evenodd" fill="#E60000" fill-opacity="1.000000" fill-rule="evenodd"/>
			</g>
		</g>
	</g>
</svg>
