<svg width="19.500000" height="18.000000" viewBox="0 0 19.5 18" fill="none" xmlns="http://www.w3.org/2000/svg" xmlns:xlink="http://www.w3.org/1999/xlink">
	<desc>
			Created with Pixso.
	</desc>
	<defs/>
	<path id="Union" d="M3.31 1.65C3.69 1.55 4.08 1.5 4.5 1.5L15 1.5C15.4 1.5 15.8 1.55 16.18 1.65C15.69 0.67 14.67 0 13.5 0L6 0C4.82 0 3.8 0.67 3.31 1.65ZM1.81 4.65C2.19 4.55 2.58 4.5 3 4.5L16.5 4.5C16.9 4.5 17.3 4.55 17.68 4.65C17.19 3.67 16.17 3 15 3L4.5 3C3.32 3 2.3 3.67 1.81 4.65ZM0 9C0 7.34 1.34 6 3 6L16.5 6C18.15 6 19.5 7.34 19.5 9L19.5 15C19.5 16.65 18.15 18 16.5 18L3 18C1.34 18 0 16.65 0 15L0 9Z" fill="#999999" fill-opacity="1.000000" fill-rule="evenodd"/>
</svg>
