<svg width="19.500000" height="19.500000" viewBox="0 0 19.5 19.5" fill="none" xmlns="http://www.w3.org/2000/svg" xmlns:xlink="http://www.w3.org/1999/xlink">
	<desc>
			Created with Pixso.
	</desc>
	<defs/>
	<path id="Subtract" d="M9.75 0C4.36 0 0 4.36 0 9.75C0 15.13 4.36 19.5 9.75 19.5C15.13 19.5 19.5 15.13 19.5 9.75C19.5 4.36 15.13 0 9.75 0ZM10.5 3.75C10.5 3.33 10.16 3 9.75 3C9.33 3 9 3.33 9 3.75L9 9.75C9 10.16 9.33 10.5 9.75 10.5L14.25 10.5C14.66 10.5 15 10.16 15 9.75C15 9.33 14.66 9 14.25 9L10.5 9L10.5 3.75Z" fill="#999999" fill-opacity="1.000000" fill-rule="evenodd"/>
</svg>
