<svg width="21.532227" height="16.500000" viewBox="0 0 21.5322 16.5" fill="none" xmlns="http://www.w3.org/2000/svg" xmlns:xlink="http://www.w3.org/1999/xlink">
	<desc>
			Created with Pixso.
	</desc>
	<defs/>
	<path id="Union" d="M10.76 0C5.79 0 1.57 3.22 0.08 7.69C-0.04 8.05 -0.04 8.44 0.09 8.8C1.57 13.27 5.79 16.5 10.76 16.5C15.73 16.5 19.95 13.27 21.44 8.8C21.56 8.44 21.56 8.05 21.44 7.69C19.95 3.22 15.73 0 10.76 0ZM10.76 13.5C13.66 13.5 16.01 11.14 16.01 8.25C16.01 5.35 13.66 3 10.76 3C7.86 3 5.51 5.35 5.51 8.25C5.51 11.14 7.86 13.5 10.76 13.5ZM13.76 8.25C13.76 9.9 12.42 11.25 10.76 11.25C9.1 11.25 7.76 9.9 7.76 8.25C7.76 6.59 9.1 5.25 10.76 5.25C12.42 5.25 13.76 6.59 13.76 8.25Z" fill="#999999" fill-opacity="1.000000" fill-rule="evenodd"/>
</svg>
