<svg width="24.000000" height="24.000000" viewBox="0 0 24 24" fill="none" xmlns="http://www.w3.org/2000/svg" xmlns:xlink="http://www.w3.org/1999/xlink">
	<desc>
			Created with Pixso.
	</desc>
	<defs>
		<clipPath id="clip272_1927">
			<rect id="Icon" rx="0.000000" width="23.000000" height="23.000000" transform="translate(0.500000 0.500000)" fill="white" fill-opacity="0"/>
		</clipPath>
	</defs>
	<g clip-path="url(#clip272_1927)">
		<path id="Vector" d="M8.25 3.75C9.49 3.75 10.5 4.75 10.5 6L10.5 8.25C10.5 9.49 9.49 10.5 8.25 10.5L6 10.5C4.75 10.5 3.75 9.49 3.75 8.25L3.75 6C3.75 4.75 4.75 3.75 6 3.75L8.25 3.75ZM8.25 13.5C9.49 13.5 10.5 14.5 10.5 15.75L10.5 18C10.5 19.24 9.49 20.25 8.25 20.25L6 20.25C4.75 20.25 3.75 19.24 3.75 18L3.75 15.75C3.75 14.5 4.75 13.5 6 13.5L8.25 13.5ZM18 3.75C19.24 3.75 20.25 4.75 20.25 6L20.25 8.25C20.25 9.49 19.24 10.5 18 10.5L15.75 10.5C14.5 10.5 13.5 9.49 13.5 8.25L13.5 6C13.5 4.75 14.5 3.75 15.75 3.75L18 3.75ZM18 13.5C19.24 13.5 20.25 14.5 20.25 15.75L20.25 18C20.25 19.24 19.24 20.25 18 20.25L15.75 20.25C14.5 20.25 13.5 19.24 13.5 18L13.5 15.75C13.5 14.5 14.5 13.5 15.75 13.5L18 13.5Z" stroke="#999999" stroke-opacity="1.000000" stroke-width="1.500000" stroke-linejoin="round"/>
	</g>
</svg>
