<svg width="24.000000" height="24.000000" viewBox="0 0 24 24" fill="none" xmlns="http://www.w3.org/2000/svg" xmlns:xlink="http://www.w3.org/1999/xlink">
	<desc>
			Created with Pixso.
	</desc>
	<defs>
		<clipPath id="clip272_1879">
			<rect id="Icon" rx="0.000000" width="23.000000" height="23.000000" transform="translate(0.500000 0.500000)" fill="white" fill-opacity="0"/>
		</clipPath>
	</defs>
	<g clip-path="url(#clip272_1879)">
		<path id="Vector" d="M6.75 3L6.75 5.25M17.25 3L17.25 5.25M18.75 5.25C19.99 5.25 21 6.25 21 7.5L21 18.75C21 19.99 19.99 21 18.75 21L5.25 21C4 21 3 19.99 3 18.75L3 7.5C3 6.25 4 5.25 5.25 5.25L18.75 5.25ZM3 18.75L3 11.25C3 10 4 9 5.25 9L18.75 9C19.99 9 21 10 21 11.25L21 18.75" stroke="#999999" stroke-opacity="1.000000" stroke-width="1.500000" stroke-linejoin="round" stroke-linecap="round"/>
	</g>
</svg>
