<svg width="28.000000" height="28.000000" viewBox="0 0 28 28" fill="none" xmlns="http://www.w3.org/2000/svg" xmlns:xlink="http://www.w3.org/1999/xlink">
	<desc>
			Created with Pixso.
	</desc>
	<defs>
		<clipPath id="clip224_1277">
			<rect id="Icon" rx="0.000000" width="27.000000" height="27.000000" transform="translate(0.500000 0.500000)" fill="white" fill-opacity="0"/>
		</clipPath>
	</defs>
	<g clip-path="url(#clip224_1277)">
		<path id="Vector" d="M6.88 21.58L8.77 21.58C9.33 21.58 9.89 21.67 10.43 21.85L14.06 23.06C14.6 23.24 15.16 23.33 15.72 23.33L20.41 23.33C21.13 23.33 21.83 23.04 22.28 22.48C24.21 20.08 25.37 17.03 25.37 13.7C25.37 13.2 25.34 12.7 25.29 12.2C25.16 11.01 24.09 10.2 22.89 10.2L19.25 10.2C18.53 10.2 18.09 9.36 18.4 8.71C18.94 7.57 19.25 6.3 19.25 4.95C19.25 3.5 18.07 2.33 16.62 2.33C16.14 2.33 15.75 2.72 15.75 3.2L15.75 3.94C15.75 4.61 15.62 5.27 15.37 5.89C15.01 6.78 14.28 7.44 13.44 7.89C12.14 8.59 11 9.54 10.1 10.69C9.52 11.43 8.67 11.95 7.73 11.95M2.62 17.64C2.62 19.06 2.83 20.44 3.23 21.73C3.53 22.72 4.49 23.33 5.53 23.33L6.59 23.33C7.11 23.33 7.43 22.75 7.2 22.28C7.08 22.05 6.98 21.82 6.88 21.58C6.39 20.36 6.12 19.03 6.12 17.64C6.12 15.65 6.68 13.78 7.64 12.2C7.93 11.73 7.61 11.08 7.06 11.08L5.83 11.08C4.86 11.08 3.95 11.61 3.59 12.51C2.96 14.1 2.62 15.83 2.62 17.64ZM19.25 10.2L16.62 10.2" stroke="#FFFFFF" stroke-opacity="1.000000" stroke-width="2.000000" stroke-linejoin="round" stroke-linecap="round"/>
	</g>
</svg>
