<svg width="24.000000" height="24.000000" viewBox="0 0 24 24" fill="none" xmlns="http://www.w3.org/2000/svg" xmlns:xlink="http://www.w3.org/1999/xlink">
	<desc>
			Created with Pixso.
	</desc>
	<defs>
		<clipPath id="clip272_1901">
			<rect id="Icon" rx="0.000000" width="23.000000" height="23.000000" transform="translate(0.500000 0.500000)" fill="white" fill-opacity="0"/>
		</clipPath>
	</defs>
	<g clip-path="url(#clip272_1901)">
		<path id="Star 5" d="M14.64 8.61C14.72 8.8 14.91 8.93 15.11 8.95L20.63 9.39C21.13 9.43 21.33 10.05 20.95 10.38L16.75 13.98C16.59 14.12 16.52 14.33 16.57 14.54L17.85 19.92C17.97 20.41 17.44 20.8 17.01 20.53L12.29 17.65C12.11 17.54 11.88 17.54 11.7 17.65L6.98 20.53C6.55 20.8 6.02 20.41 6.14 19.92L7.42 14.54C7.47 14.33 7.4 14.12 7.24 13.98L3.04 10.38C2.66 10.05 2.86 9.43 3.36 9.39L8.88 8.95C9.08 8.93 9.27 8.8 9.35 8.61L11.48 3.49C11.67 3.03 12.32 3.03 12.51 3.49L14.64 8.61Z" stroke="#999999" stroke-opacity="1.000000" stroke-width="1.500000" stroke-linejoin="round"/>
	</g>
</svg>
