<svg width="28.000000" height="28.000000" viewBox="0 0 28 28" fill="none" xmlns="http://www.w3.org/2000/svg" xmlns:xlink="http://www.w3.org/1999/xlink">
	<desc>
			Created with Pixso.
	</desc>
	<defs>
		<clipPath id="clip224_1280">
			<rect id="Icon" rx="0.000000" width="27.000000" height="27.000000" transform="translate(0.500000 0.500000)" fill="white" fill-opacity="0"/>
		</clipPath>
	</defs>
	<g clip-path="url(#clip224_1280)">
		<path id="Vector" d="M22.29 6.57C26.4 10.67 26.4 17.32 22.29 21.42M19.2 9.66C21.59 12.06 21.59 15.93 19.2 18.33M13.38 4.11C13.93 3.56 14.87 3.95 14.87 4.73L14.87 23.26C14.87 24.04 13.93 24.43 13.38 23.88L7.87 18.37L5.26 18.37C4.23 18.37 3.27 17.78 3 16.79C2.75 15.9 2.62 14.96 2.62 14C2.62 13.03 2.75 12.09 3 11.2C3.27 10.21 4.23 9.62 5.26 9.62L7.87 9.62L13.38 4.11Z" stroke="#FFFFFF" stroke-opacity="1.000000" stroke-width="2.000000" stroke-linejoin="round" stroke-linecap="round"/>
	</g>
</svg>
