<svg width="98.000000" height="18.000000" viewBox="0 0 98 18" fill="none" xmlns="http://www.w3.org/2000/svg" xmlns:xlink="http://www.w3.org/1999/xlink">
	<desc>
			Created with Pixso.
	</desc>
	<defs/>
	<path id="Shape" d="M9 0L5.88 4.71L0.44 6.21L3.95 10.63L3.7 16.28L9 14.3L14.29 16.28L14.04 10.63L17.55 6.21L12.11 4.71L9 0Z" fill="#999999" fill-opacity="1.000000" fill-rule="evenodd"/>
	<path id="Shape" d="M5.88 4.71L0.44 6.21L3.95 10.63L3.7 16.28L9 14.3L14.29 16.28L14.04 10.63L17.55 6.21L12.11 4.71L9 0L5.88 4.71ZM9 1.81L6.51 5.57L2.16 6.77L4.97 10.3L4.77 14.81L9 13.23L13.22 14.81L13.02 10.3L15.83 6.77L11.48 5.57L9 1.81Z" fill="#999999" fill-opacity="1.000000" fill-rule="evenodd"/>
	<path id="Shape" d="M29 0L25.88 4.71L20.44 6.21L23.95 10.63L23.71 16.28L29 14.3L34.29 16.28L34.04 10.63L37.55 6.21L32.11 4.71L29 0Z" fill="#999999" fill-opacity="1.000000" fill-rule="evenodd"/>
	<path id="Shape" d="M25.88 4.71L20.44 6.21L23.95 10.63L23.71 16.28L29 14.3L34.29 16.28L34.04 10.63L37.55 6.21L32.11 4.71L29 0L25.88 4.71ZM29 1.81L26.51 5.57L22.16 6.77L24.97 10.3L24.77 14.81L29 13.23L33.22 14.81L33.02 10.3L35.83 6.77L31.48 5.57L29 1.81Z" fill="#999999" fill-opacity="1.000000" fill-rule="evenodd"/>
	<path id="Shape" d="M49 0L45.88 4.71L40.44 6.21L43.95 10.63L43.71 16.28L49 14.3L54.29 16.28L54.04 10.63L57.55 6.21L52.11 4.71L49 0Z" fill="#999999" fill-opacity="1.000000" fill-rule="evenodd"/>
	<path id="Shape" d="M45.88 4.71L40.44 6.21L43.95 10.63L43.71 16.28L49 14.3L54.29 16.28L54.04 10.63L57.55 6.21L52.11 4.71L49 0L45.88 4.71ZM49 1.81L46.51 5.57L42.16 6.77L44.97 10.3L44.77 14.81L49 13.23L53.22 14.81L53.02 10.3L55.83 6.77L51.48 5.57L49 1.81Z" fill="#999999" fill-opacity="1.000000" fill-rule="evenodd"/>
	<path id="Shape" d="M69 0L65.88 4.71L60.44 6.21L63.95 10.63L63.71 16.28L69 14.3L74.29 16.28L74.04 10.63L77.55 6.21L72.11 4.71L69 0Z" fill="#999999" fill-opacity="1.000000" fill-rule="evenodd"/>
	<path id="Shape" d="M65.88 4.71L60.44 6.21L63.95 10.63L63.71 16.28L69 14.3L74.29 16.28L74.04 10.63L77.55 6.21L72.11 4.71L69 0L65.88 4.71ZM69 1.81L66.51 5.57L62.16 6.77L64.97 10.3L64.77 14.81L69 13.23L73.22 14.81L73.02 10.3L75.83 6.77L71.48 5.57L69 1.81Z" fill="#999999" fill-opacity="1.000000" fill-rule="evenodd"/>
	<path id="Shape" d="M89 0L85.88 4.71L80.44 6.21L83.95 10.63L83.71 16.28L89 14.3L94.29 16.28L94.04 10.63L97.55 6.21L92.11 4.71L89 0Z" fill="#999999" fill-opacity="1.000000" fill-rule="evenodd"/>
</svg>
