<svg width="40.000000" height="40.000000" viewBox="0 0 40 40" fill="none" xmlns="http://www.w3.org/2000/svg" xmlns:xlink="http://www.w3.org/1999/xlink">
	<desc>
			Created with Pixso.
	</desc>
	<defs>
		<filter id="filter_184_890_dd" x="6.400024" y="1.600006" width="27.452637" height="36.000000" filterUnits="userSpaceOnUse" color-interpolation-filters="sRGB">
			<feFlood flood-opacity="0" result="BackgroundImageFix"/>
			<feGaussianBlur in="BackgroundImage" stdDeviation="4"/>
			<feComposite in2="SourceAlpha" operator="in" result="effect_backgroundBlur_1"/>
			<feBlend mode="normal" in="SourceGraphic" in2="effect_backgroundBlur_1" result="shape"/>
		</filter>
		<clipPath id="clip184_889">
			<rect id="Frame" rx="0.000000" width="26.452671" height="35.000000" transform="translate(6.900024 2.100006)" fill="white" fill-opacity="0"/>
		</clipPath>
		<clipPath id="clip184_888">
			<rect id="Icon" rx="0.000000" width="39.000000" height="39.000000" transform="translate(0.500000 0.500000)" fill="white" fill-opacity="0"/>
		</clipPath>
	</defs>
	<g clip-path="url(#clip184_888)">
		<rect id="Frame" rx="0.000000" width="26.452671" height="35.000000" transform="translate(6.900024 2.100006)" fill="#FFFFFF" fill-opacity="0"/>
		<g clip-path="url(#clip184_889)">
			<g filter="url(#filter_184_890_dd)">
				<path id="Vector" d="M6.4 19.58C6.4 14.76 6.4 9.94 6.4 5.13C6.4 2.89 7.69 1.6 9.92 1.6C16.72 1.6 23.52 1.6 30.33 1.6C32.55 1.6 33.85 2.89 33.85 5.13C33.85 14.79 33.85 24.44 33.85 34.1C33.85 36.29 32.54 37.59 30.36 37.59C23.53 37.59 16.72 37.59 9.89 37.59C7.71 37.59 6.41 36.28 6.41 34.1C6.4 29.26 6.4 24.41 6.4 19.58ZM17 33.33C19.09 33.33 21.16 33.33 23.23 33.33C23.23 32.64 23.23 31.99 23.23 31.33C21.13 31.33 19.07 31.33 17 31.33C17 32.02 17 32.67 17 33.33Z" fill="#E60000" fill-opacity="1.000000" fill-rule="nonzero"/>
				<path id="Vector" d="M6.4 19.58L6.4 5.13C6.4 2.89 7.69 1.6 9.92 1.6L30.33 1.6C32.55 1.6 33.85 2.89 33.85 5.13L33.85 34.1C33.85 36.29 32.54 37.59 30.36 37.59L9.89 37.59C7.71 37.59 6.41 36.28 6.41 34.1C6.4 29.26 6.4 24.41 6.4 19.58ZM7.4 12.35L7.4 5.13Q7.4 3.86 8.03 3.22Q8.66 2.6 9.92 2.6L30.33 2.6Q31.58 2.6 32.21 3.22Q32.85 3.86 32.85 5.13L32.85 34.1Q32.85 35.35 32.22 35.98Q31.6 36.59 30.36 36.59L9.89 36.59Q8.66 36.59 8.03 35.98Q7.41 35.35 7.41 34.1L7.4 26.84L7.4 19.58L7.4 12.35ZM24.23 34.33L24.23 30.33L16 30.33L16 34.33L24.23 34.33ZM22.23 33.33L17 33.33L17 32.33L17 32.33L17 31.33L23.23 31.33L23.23 32.33L23.23 32.33L23.23 33.33L22.23 33.33Z" fill="#E60000" fill-opacity="1.000000" fill-rule="evenodd"/>
			</g>
		</g>
	</g>
</svg>
